<?xml version="1.0" encoding="utf-8"?>
<!-- Generator: Adobe Illustrator 26.0.2, SVG Export Plug-In . SVG Version: 6.00 Build 0)  -->
<svg version="1.1" id="Layer_1" xmlns="http://www.w3.org/2000/svg" xmlns:xlink="http://www.w3.org/1999/xlink" x="0px" y="0px"
	 viewBox="0 0 714 714" style="enable-background:new 0 0 714 714;" xml:space="preserve">
<style type="text/css">
	.st0{fill:#323D27;}
	.st1{fill:#3E5827;}
	.st2{fill:#F2E0BA;}
	.st3{fill:#C6B4A6;}
	.st4{fill:#C6B3A5;}
	.st5{fill:#121110;}
	.st6{fill:#FABEAB;}
	.st7{fill:#2C241D;}
	.st8{fill:#352D25;}
	.st9{fill:#161514;}
	.st10{fill:#FCC0AD;}
	.st11{fill:#D6AD49;}
	.st12{fill:#A98B44;}
	.st13{fill:#663222;}
	.st14{fill:#F2734B;}
	.st15{fill:#F2724B;}
	.st16{fill:#98BF76;}
	.st17{fill:#E9CD8A;}
	.st18{fill:#98BFD7;}
	.st19{fill:#99C0D7;}
	.st20{fill:#735141;}
	.st21{fill:#E2A132;}
	.st22{fill:#E2A032;}
	.st23{fill:#742912;}
	.st24{fill:#E2A133;}
	.st25{fill:#742A13;}
	.st26{fill:#8B5A2D;}
	.st27{fill:#D38947;}
	.st28{fill:#8C5A2E;}
	.st29{fill:#F2C78D;}
	.st30{fill:#752B14;}
	.st31{fill:#D38A48;}
	.st32{fill:#ECDA9A;}
	.st33{fill:#8D5B2F;}
	.st34{fill:#D38A49;}
	.st35{fill:#855E36;}
	.st36{fill:#4C3C2E;}
	.st37{fill:#C78F7D;}
	.st38{fill:#F9CBBD;}
	.st39{fill:#D6B397;}
	.st40{fill:#302922;}
	.st41{fill:#2F2821;}
	.st42{fill:#9F492F;}
	.st43{fill:#F8CABC;}
	.st44{fill:#846D5A;}
	.st45{fill:#1F1100;}
	.st46{fill:#9E8A7C;}
	.st47{fill:#3F352E;}
	.st48{fill:#C8B5A7;}
	.st49{fill:#DEC4A0;}
	.st50{fill:#3D332C;}
	.st51{fill:#AF7893;}
	.st52{fill:#4A6434;}
	.st53{fill:#9D897B;}
</style>
<g>
	<path d="M442.8,604.7c-2.6-7.8-2.6-7.4-7.5-13.8c0.1-0.4,0.1-0.8,0.2-1.2c0.9-2.3,0.3-4.4-0.7-6.4c-1-2.1-2.4-4-3.9-5.8
		c-2.2-2.6-4.7-5-7.4-7.2c-0.8-0.7-1.7-1.4-2.6-2.2c0.6-0.7,1.2-1.3,1.7-1.8c3-3.4,3.6-7.3,2.4-11.5c-0.5-1.7-1.3-3.3-2.2-4.8
		c-4.7-7.6-10.5-14.1-18.1-18.8c-3.8-2.3-7.6-4.6-11.5-6.7c-10.9-5.9-18.5-14.8-23.9-25.7c-1-2-1.8-4-2.2-6.4c1-0.5,2-1,3-1.4
		c5.7-2.5,11.3-5.1,16.6-8.5c2.4-1.5,4.6-3.1,6.5-5.2c3.1-3.6,4.6-7.8,5.1-12.7c0.5-0.5,1.1-1.2,1.7-1.8c0.4,0.1,0.8,0,1.1,0.2
		c5.6,3.1,10.6,6.9,15.1,11.5c3.5,3.6,6.9,7.2,10.4,10.8c0.8,0.8,1.6,1.5,2.5,2.4c0.6-0.4,1.2-0.8,1.8-1.2c-0.3-0.7-0.4-1.4-0.7-1.9
		c-0.4-0.6-1-1.2-1.6-1.7c-2.7-2.8-5.5-5.6-8.1-8.4c-4.7-5.1-10.1-9.4-16-13c-0.6-0.3-1.1-0.7-1.7-1.1c-0.2-0.1-0.3-0.4-0.5-0.7
		c0.2-0.4,0.5-0.9,0.7-1.3c0.4,0,0.6-0.1,0.8,0c4.4,2.1,8.9,4,13.1,6.5c10.5,6.2,20.3,13.3,29.3,21.5c3.8,3.5,7.1,7.4,10.4,11.3
		c3.4,4,6.8,7.9,10.3,11.8c0.4,0.5,1,0.9,1.3,1.2c1.2,0.2,1.6-0.4,1.9-1.1c0-0.3,0-0.6-0.1-0.8c-0.3-0.6-0.6-1.2-1.1-1.7
		c-4.6-5.3-9.2-10.6-13.8-15.9c-5.6-6.5-12.2-12-19-17.2c-3.4-2.5-6.9-4.9-10.4-7.3c-6-4.2-12.6-7.5-19.3-10.5
		c-0.6-0.3-1.2-0.5-1.8-0.9c-0.2-0.1-0.3-0.3-0.5-0.6c0.1-0.3,0.2-0.7,0.3-1.2c3.1,0.4,6,1.3,8.7,2.6c5.8,2.8,11.6,5.6,17.3,8.7
		c7.3,3.9,13.8,9,20,14.4c3.2,2.8,6.2,5.7,9.3,8.6c0.8,0.8,1.6,1.6,2.5,2.2c0.5,0.4,1.2,0.5,1.6,0.7c1.1-0.3,1.4-0.9,1.3-1.8
		c-0.1-0.2-0.1-0.5-0.3-0.6c-6.3-6.1-12.7-12.1-19.7-17.5c-8.2-6.3-17.2-11.1-26.4-15.5c-4.6-2.2-9.4-4.1-14.6-4.9
		c-0.2-0.6-0.3-1-0.5-1.5c2.2-0.5,4.4-0.5,7,0c3.6,0.7,7.1,1.7,10.5,3.2c8.4,3.6,16.5,7.8,24.1,12.9c1.1,0.7,2.2,1.5,3.4,2.2
		c0.7,0.4,1.4,0.6,1.9,0.9c1.2-0.2,1.8-0.8,1.6-2c-0.2-0.2-0.5-0.6-0.8-0.8c-5.2-3.2-10.3-6.6-15.7-9.5c-4.2-2.3-8.5-4.3-12.9-6.2
		c-5.5-2.5-11.4-3.7-17.5-3.9c-0.9,0-1.8-0.2-2.6-0.3c-0.1,0-0.2-0.1-0.3-0.2c0-0.2,0-0.4-0.1-0.7c2-0.9,4.3-1,6.5-1.1
		c3.7-0.2,7.3,0.6,10.9,1.1c5.2,0.7,10.2,2.1,15.1,4.1c1.3,0.5,2.6,1.4,4.3,0.7c0.1-0.5,0.3-1,0.5-1.8c-0.9-0.5-1.6-1-2.4-1.3
		c-6.7-2.9-13.7-4.5-20.9-5.3c-1.7-0.2-3.3-0.5-5-0.6c-2.9-0.2-5.8,0.3-8.6,0.9c-0.7,0.2-1.5,0.5-2.4-0.2c0.1-0.5,0.2-1.2,0.5-1.7
		c1.5-3.1,1.8-6.4,1.4-9.8c-0.4-4.1-2.5-7.1-6.2-8.8c-1.6-0.7-3.3-1.2-5-1.8c-2-0.7-4-1.3-6-2c-3.7-1.2-6.8-3.3-9.5-6
		c-1.4-1.4-2.9-2.8-4.1-4.4c-3.4-4.1-7.3-7.5-11.5-10.6c-8.6-6.2-17.8-11.3-28.1-14.3c-4.9-1.5-10-2.3-15-3.1
		c-3.2-0.5-6.3-1-9.7-1.6c-0.3-1.2-0.6-2.4-0.8-3.6c-1.3-7.5-3.5-14.7-6.3-21.7c-1.4-3.5-3.2-6.9-5.3-10c-2.2-3.2-4.4-6.4-6.8-9.5
		c-1.3-1.7-2.8-3.2-4.3-4.7c-0.6-0.6-1.4-1.1-2.2-1.5c-2.4-1.3-4.6-0.7-6,1.7c-0.6,1-1.1,2.2-1.3,3.4c-0.5,2.4-1,4.8-1.3,7.2
		c-0.6,3.9-1,7.7-1.5,11.6c0,0.3-0.2,0.6-0.3,0.9c-0.7,0.3-0.8-0.4-0.9-0.7c-3.5-6.3-7.9-11.8-12.9-16.9c-2.4-2.5-5.1-4.6-8.3-5.9
		c-1.7,0.2-2.5,1.2-2.5,2.7c0,0.4,0,0.9,0,1.3c0.5,9,0.3,18,0.1,27c-0.1,2.6-0.2,5.1-0.2,7.7c0,6.5-1.3,12.8-3.7,18.9
		c-2.8,7.3-6.2,14.3-10.1,21c-1.3,2.2-2.8,4.3-4.3,6.4c-3.7,5.3-7.3,10.6-10.4,16.3c-2.4,4.5-4.5,9.2-6.3,14
		c-2.4,6.3-3.3,12.9-4,19.6c-0.4,3.6-0.6,7.3-0.6,11c0,10.2,0.4,20.5,2.4,30.6c0.6,3.2,1.4,6.3,2.4,9.4c2.9,9,6,17.9,9.7,26.6
		c1,2.4,2.1,4.6,3.2,7c0.6,1.3,1.1,2.7,1.7,4c0.6,1.3,0.6,2.6,0.1,3.9c-0.4,1.2-0.8,2.3-1.2,3.5c-2.6,7.1-4.9,14.3-6.4,21.7
		c-0.1,0.5-0.3,1.1-0.4,1.8c-0.9-0.5-1.7-0.8-2.5-1.3c-11.7-6.9-22.8-14.7-33.4-23.3c-10.6-8.7-20.6-18-29.8-28.2
		c-13.7-15.1-25.5-31.5-35.4-49.2C105,457.9,96.1,435,90.5,410.9c-2.3-10-4-20.1-5.1-30.2c-1.2-10.4-1.8-20.9-1.6-31.3
		c0.4-37,8.1-72.4,23.5-106.1c11.5-25.2,26.6-48,45.2-68.6c20.7-22.8,44.6-41.5,71.6-56.3c22.6-12.4,46.5-21.3,71.6-26.9
		c10.1-2.3,20.3-4,30.6-5.1c10.7-1.2,21.5-1.8,32.3-1.7c9.7,0.1,19.3,0.7,29,1.7c19.4,2.1,38.4,6.2,57,12.3
		c30.4,10,58.2,24.9,83.4,44.7c23.1,18.1,42.7,39.3,58.9,63.7c18.9,28.7,31.8,59.8,38.5,93.5c1.9,9.5,3.2,19.1,4,28.7
		c0.7,8.3,1.1,16.7,1,25c-0.2,12.1-1.1,24.2-2.9,36.2c-4.3,28.5-13.1,55.6-26.3,81.2c-10.7,20.7-23.9,39.6-39.6,56.8
		c-22.9,25.2-49.5,45.3-79.9,60.6c-11.5,5.8-23.4,10.8-35.7,14.9c-0.7,0.2-1.5,0.5-2.2,0.7C443.4,604.9,443.2,604.8,442.8,604.7z
		 M533.9,367c0.7-0.3,1.4-0.4,1.9-0.8c2.3-1.5,4.8-2.9,6.9-4.6c7.7-6.2,14-13.6,19.6-21.7c3.2-4.6,5.9-9.4,8.2-14.5
		c2.2-4.8,4.4-9.5,6.1-14.4c3-8.8,5-17.7,5.9-27c0.6-6.1,0.5-12.2,0.4-18.3c-0.1-2.9-0.3-5.8-0.7-8.6c-0.7-5.1-1.9-10-3.2-15
		c-4.2-16.3-12.2-30.4-24.2-42.4c-6.6-6.6-14-12.4-21.8-17.5c-3.8-2.5-7.8-4.8-12-6.5c-7.2-2.9-14.5-5.7-22-7.6
		c-6.1-1.5-12.2-2.7-18.4-3.1c-9.7-0.7-19.3-0.5-28.9,1.3c-2.8,0.5-5.7,1.1-8.5,1.8c-10.2,2.9-19.9,7.1-28.9,12.7
		c-1.8,1.1-3.6,2.3-5.3,3.5c-0.6,0.4-1,1.1-1.4,1.6c0.1,0.4,0.1,0.7,0.2,0.9c0.2,0.3,0.4,0.5,0.6,0.9c0.9-0.2,1.6-0.2,2.3-0.5
		c5.4-2.6,11-4.2,16.9-4.7c3.1-0.3,6.2-0.7,9.3-0.8c4.1-0.1,8.2-0.1,12.3-0.1c1.9,0,3.8,0.1,5.7,0.3c5.1,0.4,10.1,1.5,15.1,2.7
		c9.9,2.5,19.3,6.1,28.3,10.6c7.1,3.5,14,7.3,20.3,12.2c4.8,3.7,9.2,7.8,12.4,12.9c1.2,1.9,2.4,3.7,3.7,5.5c3.8,5.4,6.7,11.3,9.9,17
		c0.3,0.6,0.6,1.2,0.8,1.8c2.5,6.6,4.6,13.2,6,20.1c2.1,10.1,3.4,20.4,3.6,30.8c0.1,6.1,0.1,12.2-0.9,18.3c-0.4,2.2-0.8,4.4-1.2,6.6
		c-1.8,11.1-5.7,21.5-10.6,31.5c-1.9,3.8-4.2,7.3-7.4,10.3c-1.1,1-2,2.1-2.3,3.8C533.1,366.2,533.5,366.6,533.9,367z M280.7,141.2
		c-1.7-0.1-3.8,0.2-5.8,0.9c-7.3,2.6-12,7.6-13.3,15.3c-1.2,7.4,1.5,13.4,7.3,17.9c8.4,6.4,19.8,5.1,26.7-2.1c7-7.4,6.8-19-0.4-26.2
		C291.3,143.1,286.6,141.2,280.7,141.2z M470.1,381.2c1.6,0.1,4.3-0.7,6.7-2.2c5.4-3.2,8.2-9.5,7-15.4c-2.4-11.6-16.2-15.8-24.9-8.7
		c-6,4.9-7.3,13.4-2.8,19.7C459.2,379.1,463.5,381.2,470.1,381.2z M197.9,271.4c-3.2-0.1-5.7,1.1-7.9,3.2
		c-4.8,4.9-4.5,13.1,0.6,17.6c3.7,3.2,9,3.6,13,0.9c7-4.8,6.9-14.9,0.4-19.7C202.2,272.1,200.2,271.4,197.9,271.4z M465.3,256.8
		c0,3.4,0.9,5.9,2.8,7.9c3.6,4,9.9,4,13.5,0c4-4.4,3.6-11.7-0.8-15.6c-3.5-3.1-8.6-3.1-12.1,0.1C466.4,251.3,465.3,254,465.3,256.8z
		 M119.2,380.5c-0.4,0.1-0.8,0.1-1.3,0.2c-3.6,0.8-5.8,3.1-6.6,6.7c-0.8,3.6,0.2,6.6,3,8.9c3,2.6,7.1,2.4,10-0.1
		c4.2-3.7,4-10.5-0.5-14C122.5,381.2,120.9,380.7,119.2,380.5z M542.2,453.3c2.2,0.1,4-0.8,5.5-2.4c3-3,2.5-7.9,1-10.2
		c-3.2-5-10.3-4.8-13.1,0.4c-0.5,1-0.9,2.1-1,3.1C533.9,448.8,537.6,453.4,542.2,453.3z M357.1,277.6c3.8-0.1,7-3.3,7.2-7.3
		c0.2-3.6-2.1-6.8-5.5-7.8c-3.2-0.9-6.8,0.7-8.3,3.9c-0.5,1-0.7,2.1-0.8,3.2C349.4,274,352.9,277.7,357.1,277.6z M408.8,127.7
		c0-2.1-0.6-3.7-1.8-5c-2-2-5.1-2.1-7.2-0.1c-2.6,2.6-2.5,7.5,0.2,9.9c2,1.8,4.6,1.8,6.6,0C408.1,131.3,408.8,129.6,408.8,127.7z"/>
</g>
</svg>
